PathFileType	4	(X/Y/Z)	/Users/itak/Documents/Research/Walk-IL/dataset/trc/00089_00006.trc
DataRate	CameraRate	NumFrames	NumMarkers	Units	OrigDataRate	OrigDataStartFrame	OrigNumFrames
100.000000	100.000000	4	53	mm	100.000000	0	504
Frame#	Time	RPSI			LPSI			L3			STRN			T10			C7			CLAV			RBAK			LBAK			LSHO			LUPA			LAEL			LAOL			LWTS			LWPS			LFRA			LIFD			LHPS			LHTS			RSHO			RUPA			RAEL			RAOL			RWTS			RWPS			RFRA			RIFD			RHTS			RHPS			RBHD			LFHD			RFHD			LBHD			LHIP			RHIP			RASI			LASI			LKNE			LTHI			LANK			LTIP			LTOE			LMT1			LMT5			LHEE			RKNE			RTHI			RANK			RTIP			RTOE			RMT1			RMT5			RHEE			
		X1	Y1	Z1	X2	Y2	Z2	X3	Y3	Z3	X4	Y4	Z4	X5	Y5	Z5	X6	Y6	Z6	X7	Y7	Z7	X8	Y8	Z8	X9	Y9	Z9	X10	Y10	Z10	X11	Y11	Z11	X12	Y12	Z12	X13	Y13	Z13	X14	Y14	Z14	X15	Y15	Z15	X16	Y16	Z16	X17	Y17	Z17	X18	Y18	Z18	X19	Y19	Z19	X20	Y20	Z20	X21	Y21	Z21	X22	Y22	Z22	X23	Y23	Z23	X24	Y24	Z24	X25	Y25	Z25	X26	Y26	Z26	X27	Y27	Z27	X28	Y28	Z28	X29	Y29	Z29	X30	Y30	Z30	X31	Y31	Z31	X32	Y32	Z32	X33	Y33	Z33	X34	Y34	Z34	X35	Y35	Z35	X36	Y36	Z36	X37	Y37	Z37	X38	Y38	Z38	X39	Y39	Z39	X40	Y40	Z40	X41	Y41	Z41	X42	Y42	Z42	X43	Y43	Z43	X44	Y44	Z44	X45	Y45	Z45	X46	Y46	Z46	X47	Y47	Z47	X48	Y48	Z48	X49	Y49	Z49	X50	Y50	Z50	X51	Y51	Z51	X52	Y52	Z52	X53	Y53	Z53	

1	0	-1298.182006835938	1034.77880859375	104.5358276367188	-1309.662841796875	1020.632568359375	-69.96186065673828	-1301.900512695312	1084.41357421875	8.918569564819336	-1056.517700195312	1292.79931640625	6.258885860443115	-1323.29833984375	1218.228149414062	-1.247249364852905	-1271.968383789062	1486.599731445312	-10.83950710296631	-1089.875244140625	1406.475341796875	1.183526873588562	-1332.844604492188	1347.834838867188	66.77596282958984	-1288.079467773438	1445.16650390625	-112.8938293457031	-1181.241333007812	1451.690185546875	-180.1329498291016	-1187.211303710938	1323.890991210938	-256.8919677734375	-1151.532470703125	1112.397583007812	-279.9356994628906	-1220.4541015625	1091.980712890625	-200.41796875	-1053.998046875	875.7067260742188	-217.0194854736328	-1107.801025390625	863.65576171875	-281.5444030761719	-1125.474609375	1004.885375976562	-288.8017578125	-1031.089721679688	690.8303833007812	-204.3342590332031	-1070.94677734375	784.660888671875	-277.1315002441406	-1031.084838867188	793.434814453125	-220.9065093994141	-1215.502197265625	1456.235229492188	169.3948211669922	-1227.419189453125	1387.45068359375	235.727294921875	-1252.601806640625	1119.924926757812	256.9970397949219	-1231.581298828125	1099.239013671875	162.6697998046875	-1107.876586914062	870.7147216796875	236.559326171875	-1184.659057617188	855.4677734375	276.9987487792969	-1240.330078125	1042.184692382812	263.5758666992188	-1098.687744140625	682.3204956054688	225.9432373046875	-1083.991577148438	770.1346435546875	242.0983581542969	-1147.003295898438	767.75634765625	286.42626953125	-1244.385986328125	1657.279296875	58.62636184692383	-1055.765258789062	1709.916137695312	-46.71393585205078	-1079.84521484375	1702.320678710938	76.63709259033203	-1227.357788085938	1672.417236328125	-77.47340393066406	-1204.744750976562	961.9876708984375	-163.2190093994141	-1227.567016601562	966.8141479492188	183.0365600585938	-1104.549926757812	987.78955078125	159.1165008544922	-1093.864624023438	975.2271728515625	-109.0316390991211	-1107.493408203125	501.8395690917969	-101.7836761474609	-1144.800048828125	639.9274291992188	-142.3476104736328	-1258.064575195312	54.29481887817383	-123.5693130493164	-1188.3525390625	263.743408203125	-127.7058334350586	-1051.585693359375	46.2624626159668	-117.1700057983398	-1099.83203125	46.535400390625	-64.10523223876953	-1155.32568359375	45.19014739990234	-161.8355865478516	-1309.526977539062	51.94633483886719	-47.00694274902344	-1134.421752929688	524.4909057617188	170.0121612548828	-1140.52880859375	798.0838623046875	191.6212768554688	-1228.6640625	45.69758987426758	170.9838256835938	-1156.548583984375	401.2837829589844	177.3810272216797	-1010.305847167969	43.19565582275391	145.1283721923828	-1069.7822265625	48.18505477905273	102.7907791137695	-1105.97265625	49.13779067993164	194.7601623535156	-1272.552368164062	46.27048492431641	111.3558044433594	
2	0.01	-1297.729370117188	1034.685791015625	105.7080993652344	-1309.534912109375	1020.597717285156	-68.77754974365234	-1301.620849609375	1084.2568359375	10.1042366027832	-1056.473510742188	1292.7890625	7.23607873916626	-1323.028930664062	1218.093505859375	0.02571247145533562	-1272.06884765625	1486.472534179688	-9.703895568847656	-1089.831665039062	1406.437622070312	2.141892194747925	-1332.6474609375	1347.695190429688	68.06827545166016	-1288.248657226562	1445.038330078125	-111.6764907836914	-1181.478881835938	1451.568359375	-179.0402679443359	-1187.537353515625	1323.70703125	-255.6503448486328	-1151.748168945312	1112.23388671875	-278.6232604980469	-1220.488525390625	1091.817260742188	-198.9514007568359	-1053.519775390625	875.869384765625	-215.6769104003906	-1107.564819335938	863.5790405273438	-280.0675354003906	-1125.51513671875	1004.773864746094	-287.4261169433594	-1030.53125	690.9203491210938	-202.8327331542969	-1070.602661132812	784.6132202148438	-275.6601257324219	-1030.735107421875	793.397705078125	-219.4683074951172	-1215.241333007812	1456.299438476562	170.5243530273438	-1227.035400390625	1387.59521484375	236.9563598632812	-1252.00244140625	1120.035034179688	258.4622192382812	-1231.071411132812	1099.349243164062	163.9911193847656	-1107.052368164062	870.975341796875	237.3820953369141	-1183.61865234375	855.61962890625	278.14501953125	-1239.587524414062	1042.264404296875	265.0281982421875	-1097.578002929688	682.637451171875	226.6985015869141	-1082.936889648438	770.3997802734375	242.669189453125	-1145.855834960938	767.8439331054688	287.287841796875	-1244.504028320312	1657.17919921875	59.77192306518555	-1056.181030273438	1709.999633789062	-46.02164840698242	-1079.923828125	1702.384521484375	77.37128448486328	-1227.89404296875	1672.30419921875	-76.41372680664062	-1204.75244140625	961.96826171875	-162.1274261474609	-1227.053955078125	966.7448120117188	184.0523529052734	-1104.082641601562	987.66796875	159.9200744628906	-1093.740356445312	975.2978515625	-108.2311019897461	-1106.340942382812	501.8184814453125	-101.7853240966797	-1143.992797851562	639.8970336914062	-141.9212799072266	-1258.040283203125	54.40305328369141	-123.5776748657227	-1187.916625976562	263.9028015136719	-127.5810089111328	-1051.677856445312	46.15877151489258	-117.3435897827148	-1099.797607421875	46.63080978393555	-64.224609375	-1155.279418945312	45.07086181640625	-161.9654235839844	-1309.405883789062	52.21218872070312	-46.94514846801758	-1134.398681640625	524.368896484375	170.6887512207031	-1139.673706054688	797.919677734375	192.3214721679688	-1228.662231445312	45.61737442016602	171.0514526367188	-1156.406860351562	401.1402282714844	177.8865661621094	-1010.248229980469	43.14170455932617	145.0579986572266	-1069.802490234375	48.15924453735352	102.7737350463867	-1105.971557617188	49.11576843261719	194.7766418457031	-1272.604125976562	46.24494552612305	111.4191360473633	
3	0.02	-1297.1904296875	1034.578735351562	107.1616744995117	-1309.404541015625	1020.556030273438	-67.29901885986328	-1301.297485351562	1084.078735351562	11.59162139892578	-1056.393798828125	1292.771362304688	8.422958374023438	-1322.697387695312	1217.930419921875	1.607200503349304	-1272.15478515625	1486.328979492188	-8.293575286865234	-1089.755004882812	1406.388305664062	3.315585136413574	-1332.385009765625	1347.532470703125	69.67217254638672	-1288.441040039062	1444.880126953125	-110.1742477416992	-1181.767211914062	1451.405883789062	-177.7014465332031	-1187.953125	1323.4560546875	-254.1189880371094	-1152.039672851562	1112.00537109375	-276.9892578125	-1220.531494140625	1091.60205078125	-197.1082611083984	-1052.957763671875	876.0372924804688	-213.9674987792969	-1107.306396484375	863.45166015625	-278.1782836914062	-1125.603515625	1004.601257324219	-285.7029113769531	-1029.834106445312	691.0400390625	-200.8817443847656	-1070.19873046875	784.5346069335938	-273.7658081054688	-1030.354125976562	793.3412475585938	-217.6211853027344	-1214.903564453125	1456.363403320312	171.9094390869141	-1226.549682617188	1387.759521484375	238.4642486572266	-1251.266479492188	1120.160522460938	260.3074340820312	-1230.4638671875	1099.459106445312	165.6504364013672	-1106.005493164062	871.3032836914062	238.3924865722656	-1182.295776367188	855.7938232421875	279.576171875	-1238.667724609375	1042.344848632812	266.8623352050781	-1096.151611328125	683.0216064453125	227.6067962646484	-1081.584716796875	770.760009765625	243.3799133300781	-1144.337036132812	767.990966796875	288.3878784179688	-1244.632568359375	1657.0517578125	61.20527648925781	-1056.693359375	1710.10400390625	-45.16878509521484	-1080.0146484375	1702.461669921875	78.27813720703125	-1228.538330078125	1672.156616210938	-75.08073425292969	-1204.801879882812	961.9426879882812	-160.7755126953125	-1226.439331054688	966.645263671875	185.3180236816406	-1103.517333984375	987.5089721679688	160.931396484375	-1093.596069335938	975.3492431640625	-107.2423324584961	-1104.825805664062	501.8075256347656	-101.8368377685547	-1142.951782226562	639.8780517578125	-141.4309234619141	-1257.9970703125	54.54367828369141	-123.5703506469727	-1187.344848632812	264.1281433105469	-127.4273910522461	-1051.778564453125	46.03466796875	-117.6016082763672	-1099.721557617188	46.78131866455078	-64.39262390136719	-1155.219848632812	44.92577362060547	-162.1290283203125	-1309.22509765625	52.58438873291016	-46.84544372558594	-1134.3583984375	524.2146606445312	171.4603424072266	-1138.621215820312	797.7105712890625	193.1786651611328	-1228.6533203125	45.53273773193359	171.1227569580078	-1156.226928710938	400.9476013183594	178.4653930664062	-1010.185852050781	43.08628845214844	144.9574279785156	-1069.814086914062	48.11501693725586	102.743049621582	-1105.970825195312	49.09531402587891	194.7757415771484	-1272.659912109375	46.21364974975586	111.48681640625	
4	0.03	-1296.60205078125	1034.467895507812	108.824836730957	-1309.290649414062	1020.510986328125	-65.59499359130859	-1300.95849609375	1083.895385742188	13.31256866455078	-1056.27294921875	1292.744506835938	9.75163745880127	-1322.3232421875	1217.749877929688	3.420954942703247	-1272.205688476562	1486.182983398438	-6.678042411804199	-1089.639038085938	1406.328735351562	4.639763355255127	-1332.062744140625	1347.360229492188	71.50922393798828	-1288.642333984375	1444.701049804688	-108.4653396606445	-1182.089599609375	1451.20654296875	-176.1893768310547	-1188.443115234375	1323.140869140625	-252.3761138916016	-1152.401733398438	1111.712768554688	-275.1084594726562	-1220.583740234375	1091.341430664062	-194.9679107666016	-1052.359497070312	876.1883544921875	-211.9508514404297	-1107.055419921875	863.265625	-275.9378967285156	-1125.75244140625	1004.360412597656	-283.7047729492188	-1029.021118164062	691.1853637695312	-198.5315399169922	-1069.765625	784.4195556640625	-271.5025329589844	-1029.98046875	793.2640991210938	-215.4290466308594	-1214.496337890625	1456.418579101562	173.4759521484375	-1225.979248046875	1387.930297851562	240.1701354980469	-1250.431030273438	1120.2919921875	262.4565124511719	-1229.797119140625	1099.552856445312	167.5775451660156	-1104.7744140625	871.685791015625	239.5399932861328	-1180.738891601562	855.9772338867188	281.228515625	-1237.613891601562	1042.41552734375	269.0049438476562	-1094.44873046875	683.4547119140625	228.6152648925781	-1079.983764648438	771.212890625	244.1997833251953	-1142.485107421875	768.2008666992188	289.677734375	-1244.758422851562	1656.90087890625	62.86014556884766	-1057.275512695312	1710.22412109375	-44.19847869873047	-1080.110473632812	1702.548217773438	79.31158447265625	-1229.250732421875	1671.978149414062	-73.53144836425781	-1204.893798828125	961.9119262695312	-159.2253723144531	-1225.765869140625	966.5173950195312	186.7726440429688	-1102.88720703125	987.3174438476562	162.1056671142578	-1093.450073242188	975.3709716796875	-106.1129608154297	-1102.986938476562	501.8162231445312	-101.9668807983398	-1141.715942382812	639.880615234375	-140.9240570068359	-1257.9208984375	54.71192169189453	-123.5333862304688	-1186.653076171875	264.419921875	-127.2574615478516	-1051.868041992188	45.90663909912109	-117.9584121704102	-1099.581420898438	47.00127792358398	-64.61289978027344	-1155.146362304688	44.76397705078125	-162.3174743652344	-1308.9658203125	53.0612678527832	-46.69421768188477	-1134.294677734375	524.0344848632812	172.2654724121094	-1137.428466796875	797.4664306640625	194.1470794677734	-1228.637329101562	45.4542350769043	171.1883850097656	-1156.012329101562	400.7082214355469	179.0701904296875	-1010.123718261719	43.0355339050293	144.8287811279297	-1069.815063476562	48.05102920532227	102.6946411132812	-1105.971313476562	49.07995986938477	194.7485961914062	-1272.714111328125	46.17789840698242	111.551399230957	
